HIERARCHY
ROOT Hips
{
	OFFSET 0.000000 0.000000 0.000000
	CHANNELS 6 Xposition Yposition Zposition Xrotation Yrotation Zrotation
	JOINT LeftUpLeg_virtual
	{
		OFFSET 0.000000 0.000000 0.000000
		CHANNELS 3 Xrotation Yrotation Zrotation
		JOINT LeftUpLeg
		{
			OFFSET 10.205400 -3.823500 0.155100
			CHANNELS 3 Xrotation Yrotation Zrotation
			JOINT LeftLeg
			{
				OFFSET 0.708757 -12.982077 0.567790
				CHANNELS 3 Xrotation Yrotation Zrotation
				JOINT LeftFoot
				{
					OFFSET -0.708756 -10.717838 -2.184338
					CHANNELS 3 Xrotation Yrotation Zrotation
					JOINT LeftToeBase
					{
						OFFSET 0.108149 -7.191104 7.560241
						CHANNELS 3 Xrotation Yrotation Zrotation
						JOINT LeftToe_End
						{
							OFFSET 0.070230 0.081724 4.490308
							CHANNELS 3 Xrotation Yrotation Zrotation
							End Site
							{
								OFFSET 0 0 0
							}
						}
					}
				}
			}
		}
	}
	JOINT RightUpLeg_virtual
	{
		OFFSET 0.000000 0.000000 0.000000
		CHANNELS 3 Xrotation Yrotation Zrotation
		JOINT RightUpLeg
		{
			OFFSET -10.205400 -3.823500 0.005500
			CHANNELS 3 Xrotation Yrotation Zrotation
			JOINT RightLeg
			{
				OFFSET -0.708756 -12.982134 0.610632
				CHANNELS 3 Xrotation Yrotation Zrotation
				JOINT RightFoot
				{
					OFFSET 0.708754 -10.717769 -1.945823
					CHANNELS 3 Xrotation Yrotation Zrotation
					JOINT RightToeBase
					{
						OFFSET -0.108140 -7.191069 7.372968
						CHANNELS 3 Xrotation Yrotation Zrotation
						JOINT RightToe_End
						{
							OFFSET -0.070227 0.081735 4.479403
							CHANNELS 3 Xrotation Yrotation Zrotation
							End Site
							{
								OFFSET 0 0 0
							}
						}
					}
				}
			}
		}
	}
	JOINT Spine_virtual
	{
		OFFSET 0.000000 0.000000 0.000000
		CHANNELS 3 Xrotation Yrotation Zrotation
		JOINT Spine
		{
			OFFSET 0.000000 6.876099 0.125700
			CHANNELS 3 Xrotation Yrotation Zrotation
			JOINT Spine1
			{
				OFFSET 0.000000 5.730043 0.104720
				CHANNELS 3 Xrotation Yrotation Zrotation
				JOINT Spine1_split
				{
					OFFSET 0.000000 5.730043 0.104720
					CHANNELS 3 Xrotation Yrotation Zrotation
					JOINT Spine2
					{
						OFFSET 0.000000 5.730043 0.104720
						CHANNELS 3 Xrotation Yrotation Zrotation
						JOINT Neck_virtual
						{
							OFFSET 0.000000 0.000000 0.000000
							CHANNELS 3 Xrotation Yrotation Zrotation
							JOINT Neck
							{
								OFFSET 0.000000 10.314075 0.188496
								CHANNELS 3 Xrotation Yrotation Zrotation
								JOINT Head
								{
									OFFSET 0.000000 7.643700 -2.377400
									CHANNELS 3 Xrotation Yrotation Zrotation
									JOINT HeadTop_End
									{
										OFFSET 0.000000 43.788605 -13.619600
										CHANNELS 3 Xrotation Yrotation Zrotation
										End Site
										{
											OFFSET 0 0 0
										}
									}
								}
							}
						}
						JOINT LeftShoulder_virtual
						{
							OFFSET 0.000000 0.000000 0.000000
							CHANNELS 3 Xrotation Yrotation Zrotation
							JOINT LeftShoulder
							{
								OFFSET 2.196100 4.412489 0.087492
								CHANNELS 3 Xrotation Yrotation Zrotation
								JOINT LeftShoulder_split
								{
									OFFSET 2.196100 4.412489 0.087492
									CHANNELS 3 Xrotation Yrotation Zrotation
									JOINT LeftArm
									{
										OFFSET 8.771219 -2.981674 -0.026999
										CHANNELS 3 Xrotation Yrotation Zrotation
										JOINT LeftForeArm
										{
											OFFSET 8.512804 0.000000 -0.000000
											CHANNELS 3 Xrotation Yrotation Zrotation
											JOINT LeftHand
											{
												OFFSET 18.484802 0.000000 -0.000000
												CHANNELS 3 Xrotation Yrotation Zrotation
												End Site
												{
													OFFSET 0 0 0
												}
											}
										}
									}
								}
							}
						}
						JOINT RightShoulder_virtual
						{
							OFFSET 0.000000 0.000000 0.000000
							CHANNELS 3 Xrotation Yrotation Zrotation
							JOINT RightShoulder
							{
								OFFSET -2.196100 4.412496 0.070690
								CHANNELS 3 Xrotation Yrotation Zrotation
								JOINT RightShoulder_split
								{
									OFFSET -2.196100 4.412496 0.070690
									CHANNELS 3 Xrotation Yrotation Zrotation
									JOINT RightArm
									{
										OFFSET -8.771282 -2.981682 -0.094208
										CHANNELS 3 Xrotation Yrotation Zrotation
										JOINT RightForeArm
										{
											OFFSET -8.494598 0.000000 0.000000
											CHANNELS 3 Xrotation Yrotation Zrotation
											JOINT RightHand
											{
												OFFSET -18.483803 0.000000 0.000001
												CHANNELS 3 Xrotation Yrotation Zrotation
												End Site
												{
													OFFSET 0 0 0
												}
											}
										}
									}
								}
							}
						}
					}
				}
			}
		}
	}
}
MOTION
Frames: 10
Frame Time: 0.03333333
2.570950 34.385185 -5.626349 0.000000 0.000000 0.000000 5.185909 8.221984 -0.670612 -18.460934 7.593770 -0.008333 27.258450 3.841919 11.099777 -14.868183 -0.913909 -11.073455 -1.666122 -4.234042 3.530847 0.000000 0.000000 0.000000 5.204250 5.476800 -0.543152 -4.893835 -10.936518 3.119117 20.851080 -0.487191 -2.669149 -26.165983 -26.431948 8.410782 -4.315777 3.146316 -5.139675 0.000000 0.000000 0.000000 6.783174 10.028424 -1.107078 21.076726 -1.355705 1.884441 3.891275 1.977502 -0.058998 0.161018 -0.955089 0.158223 0.000000 0.000000 0.000000 6.345705 5.102453 -0.823513 7.170847 15.422830 7.945767 -12.447519 -55.587754 -44.572807 0.000000 0.000000 0.000000 5.763237 2.166335 -0.648262 6.522499 -38.514771 2.207585 5.976666 1.665747 -7.362010 18.670459 17.875471 -54.971142 4.468927 -40.515487 12.455038 0.000000 0.000000 0.000000 2.345048 2.593476 0.278230 -7.582079 0.207998 7.331438 -10.518722 -11.343522 6.328973 17.392867 11.262753 31.461504 -9.898949 35.732579 19.628939 0.000000 0.000000 0.000000 
2.585800 34.416794 -5.546462 0.000000 0.000000 0.000000 5.072459 8.223160 -0.774565 -18.148873 7.788055 0.099706 27.190515 3.764889 11.230310 -15.033661 -1.129149 -11.430926 -1.786873 -4.239931 3.527327 0.000000 0.000000 0.000000 5.080348 5.421400 -0.631171 -4.426911 -10.571696 3.369707 20.446689 -0.569962 -2.756307 -26.057529 -26.677244 8.352670 -4.472914 3.141057 -5.136940 0.000000 0.000000 0.000000 6.636365 10.125321 -1.218621 20.465876 -1.359058 1.859666 3.981365 2.036324 -0.127317 0.188511 -1.019263 0.176741 0.000000 0.000000 0.000000 6.280361 5.192836 -0.824453 6.995773 15.283327 8.399680 -12.106948 -57.392461 -46.418078 0.000000 0.000000 0.000000 5.948572 2.237400 -0.579518 6.179799 -37.704345 1.879939 6.189897 1.524178 -7.408577 19.251798 18.449022 -54.743826 5.385603 -40.025086 13.459186 0.000000 0.000000 0.000000 2.291780 2.587862 0.200737 -7.631564 0.547725 8.025998 -10.997125 -11.550085 5.936961 18.665468 9.902232 31.042698 -9.347195 37.109128 19.720662 0.000000 0.000000 0.000000 
2.599236 34.426788 -5.485154 0.000000 0.000000 0.000000 4.930509 8.265910 -0.896320 -17.960700 7.909067 0.260953 27.259664 3.702711 11.317950 -15.172357 -1.288307 -11.811566 -1.901667 -4.236216 3.511488 0.000000 0.000000 0.000000 4.952951 5.438627 -0.740710 -4.050467 -10.214047 3.598341 20.210663 -0.597054 -2.824280 -26.068853 -26.924403 8.269844 -4.539331 3.157969 -5.265016 0.000000 0.000000 0.000000 6.482157 10.230577 -1.344403 19.956430 -1.313330 1.863629 4.107476 2.112991 -0.170987 0.202872 -1.077246 0.188031 0.000000 0.000000 0.000000 6.224407 5.290132 -0.788666 6.913168 15.172084 8.735402 -12.035225 -59.285181 -48.310218 0.000000 0.000000 0.000000 6.154665 2.318021 -0.512858 5.851485 -36.859929 1.457831 6.283684 1.417201 -7.406682 19.412345 18.381303 -54.601212 6.536435 -39.739639 14.481183 0.000000 0.000000 0.000000 2.279966 2.599168 0.160864 -7.647253 0.958389 8.902906 -11.418752 -11.576862 5.617178 19.181497 8.748933 31.012296 -9.386556 38.327914 20.544748 0.000000 0.000000 0.000000 
2.610960 34.413853 -5.439916 0.000000 0.000000 0.000000 4.760773 8.341011 -1.018476 -17.883264 7.966903 0.447953 27.455054 3.661086 11.352616 -15.294687 -1.386669 -12.182911 -1.967545 -4.222671 3.484295 0.000000 0.000000 0.000000 4.827050 5.523349 -0.850188 -3.777702 -9.894392 3.767583 20.154734 -0.571259 -2.847095 -26.215497 -27.147598 8.114155 -4.455168 3.193201 -5.511038 0.000000 0.000000 0.000000 6.329841 10.357971 -1.475635 19.559275 -1.228399 1.896296 4.254346 2.208525 -0.184862 0.206176 -1.115849 0.192384 0.000000 0.000000 0.000000 6.185168 5.397607 -0.721918 6.852203 15.091503 8.931517 -12.377229 -61.161441 -50.283573 0.000000 0.000000 0.000000 6.342504 2.413178 -0.451821 5.550536 -36.085208 0.953916 6.227296 1.323373 -7.352572 19.246971 17.843714 -54.487178 7.650434 -39.592418 15.278100 0.000000 0.000000 0.000000 2.287639 2.632305 0.165658 -7.637712 1.380608 9.932421 -11.855083 -11.405289 5.365186 18.999906 7.870015 31.320584 -9.982827 39.286398 22.003699 0.000000 0.000000 0.000000 
2.619685 34.383217 -5.408387 0.000000 0.000000 0.000000 4.573360 8.439363 -1.108409 -17.875428 7.971047 0.623848 27.708230 3.634493 11.344605 -15.408178 -1.424435 -12.524018 -1.974136 -4.199339 3.460190 0.000000 0.000000 0.000000 4.688790 5.648042 -0.927979 -3.630328 -9.652816 3.836922 20.286529 -0.483411 -2.808783 -26.391048 -27.336234 7.973185 -4.307673 3.244310 -5.851211 0.000000 0.000000 0.000000 6.182459 10.516353 -1.589412 19.274230 -1.104900 1.946620 4.414729 2.326357 -0.175824 0.204917 -1.147971 0.189086 0.000000 0.000000 0.000000 6.169911 5.518126 -0.634551 6.722443 15.025342 8.980912 -13.270662 -62.946859 -52.431196 0.000000 0.000000 0.000000 6.486855 2.526020 -0.401774 5.280500 -35.480610 0.382682 6.121589 1.203095 -7.210771 18.863246 16.999581 -54.348553 8.529560 -39.693303 15.664108 0.000000 0.000000 0.000000 2.293141 2.697517 0.216470 -7.616679 1.812229 11.128888 -12.288365 -11.121977 5.220925 18.301323 7.317816 31.990496 -10.967972 39.789772 23.904974 0.000000 0.000000 0.000000 
2.623109 34.344814 -5.388118 0.000000 0.000000 0.000000 4.378490 8.560963 -1.132586 -17.878795 7.927121 0.734989 27.923396 3.616187 11.302573 -15.503689 -1.409555 -12.822269 -1.921552 -4.168887 3.439645 0.000000 0.000000 0.000000 4.535983 5.796488 -0.942897 -3.569896 -9.515651 3.790004 20.556002 -0.331826 -2.708228 -26.492904 -27.493489 7.924140 -4.195077 3.306664 -6.250590 0.000000 0.000000 0.000000 6.033420 10.715863 -1.662378 19.091613 -0.944489 2.003665 4.574950 2.463703 -0.156913 0.191854 -1.174817 0.183293 0.000000 0.000000 0.000000 6.181459 5.656027 -0.542316 6.488808 14.965986 8.882010 -14.792704 -64.667958 -54.821878 0.000000 0.000000 0.000000 6.577216 2.655392 -0.367622 5.032800 -35.074442 -0.258902 6.018302 1.031711 -6.984893 18.288352 15.996163 -54.139604 9.041059 -40.164897 15.547732 0.000000 0.000000 0.000000 2.290166 2.795254 0.302235 -7.579432 2.319023 12.466908 -12.715382 -10.838758 5.172351 17.283239 7.076390 33.042816 -12.199100 39.909171 26.066118 0.000000 0.000000 0.000000 
2.624309 34.310001 -5.376254 0.000000 0.000000 0.000000 4.180508 8.713788 -1.078091 -17.846816 7.842889 0.755269 28.012791 3.599075 11.239271 -15.539246 -1.353080 -13.077176 -1.856192 -4.131945 3.415907 0.000000 0.000000 0.000000 4.367695 5.956569 -0.876988 -3.544516 -9.483680 3.637778 20.843178 -0.125480 -2.574123 -26.541815 -27.619110 7.949612 -4.083278 3.368730 -6.669571 0.000000 0.000000 0.000000 5.874841 10.951264 -1.672262 19.000029 -0.750176 2.052810 4.723698 2.612035 -0.138575 0.180489 -1.202889 0.179055 0.000000 0.000000 0.000000 6.218559 5.807972 -0.459115 6.132295 14.907755 8.640995 -16.926723 -66.364017 -57.507802 0.000000 0.000000 0.000000 6.626371 2.799994 -0.350198 4.800811 -34.863922 -0.953970 5.917742 0.863911 -6.709774 17.575123 14.899081 -53.885319 9.140290 -41.086477 14.954204 0.000000 0.000000 0.000000 2.278945 2.919654 0.406662 -7.524758 2.981818 13.909097 -13.333742 -10.709100 5.184611 16.178462 7.150070 34.450501 -13.504437 39.691104 28.315748 0.000000 0.000000 0.000000 
2.624002 34.284260 -5.372588 0.000000 0.000000 0.000000 3.982710 8.899269 -0.943812 -17.770156 7.717228 0.677282 27.959629 3.579032 11.174764 -15.465908 -1.271000 -13.295678 -1.814626 -4.090933 3.378943 0.000000 0.000000 0.000000 4.192948 6.144400 -0.736345 -3.492104 -9.534221 3.409029 21.058728 0.108218 -2.428204 -26.646870 -27.707605 7.950906 -3.885534 3.420532 -7.063315 0.000000 0.000000 0.000000 5.692118 11.203521 -1.607940 18.968180 -0.531406 2.091037 4.854188 2.764014 -0.128081 0.176134 -1.235659 0.175159 0.000000 0.000000 0.000000 6.270293 5.967981 -0.392876 5.654589 14.848903 8.275611 -19.587277 -68.053888 -60.491666 0.000000 0.000000 0.000000 6.643278 2.951542 -0.351313 4.569023 -34.778777 -1.712969 5.836684 0.670767 -6.417968 16.709839 13.688316 -53.608806 8.840565 -42.294444 13.923858 0.000000 0.000000 0.000000 2.267052 3.064988 0.516395 -7.466685 3.862853 15.390131 -14.114898 -10.690292 5.232116 15.180770 7.543648 36.103656 -14.817990 39.234038 30.562119 0.000000 0.000000 0.000000 
2.623504 34.269196 -5.370280 0.000000 0.000000 0.000000 3.782582 9.113233 -0.738504 -17.638941 7.556244 0.503836 27.789646 3.569305 11.126025 -15.282630 -1.160994 -13.442215 -1.769689 -4.045539 3.305496 0.000000 0.000000 0.000000 4.023914 6.377771 -0.537358 -3.359988 -9.637146 3.139714 21.167053 0.335371 -2.292062 -26.880105 -27.762084 7.837445 -3.573664 3.456218 -7.412313 0.000000 0.000000 0.000000 5.478238 11.453498 -1.475994 18.958478 -0.298517 2.121516 4.963137 2.907074 -0.126146 0.170017 -1.268534 0.175273 0.000000 0.000000 0.000000 6.323996 6.123887 -0.340804 5.078366 14.793215 7.838803 -22.671252 -69.720768 -63.806411 0.000000 0.000000 0.000000 6.652685 3.098641 -0.365393 4.330015 -34.718125 -2.524586 5.716348 0.546017 -6.141894 15.646551 12.233942 -53.371317 8.215146 -43.482449 12.585463 0.000000 0.000000 0.000000 2.257404 3.213175 0.617101 -7.425445 4.997387 16.797040 -14.987011 -10.721518 5.349911 14.396637 8.287156 37.814106 -16.166790 38.695153 32.797568 0.000000 0.000000 0.000000 
2.622655 34.263649 -5.365373 0.000000 0.000000 0.000000 3.572967 9.347805 -0.485423 -17.452747 7.375867 0.259825 27.539020 3.568302 11.103722 -15.027415 -1.024032 -13.519622 -1.692237 -3.991780 3.188033 0.000000 0.000000 0.000000 3.857649 6.649472 -0.304052 -3.150207 -9.772991 2.848904 21.200035 0.552802 -2.165747 -27.167697 -27.796478 7.675720 -3.202353 3.477279 -7.713226 0.000000 0.000000 0.000000 5.226740 11.699687 -1.285087 18.924243 -0.069178 2.147893 5.049238 3.030582 -0.130723 0.164285 -1.300978 0.178376 0.000000 0.000000 0.000000 6.361503 6.261972 -0.295351 4.436201 14.746682 7.379629 -26.075253 -71.350847 -67.426842 0.000000 0.000000 0.000000 6.655347 3.229082 -0.385352 4.082425 -34.593184 -3.360585 5.543954 0.424971 -5.867443 14.387536 10.422000 -53.242742 7.390094 -44.338006 11.093711 0.000000 0.000000 0.000000 2.244520 3.346455 0.701658 -7.408181 6.336398 18.066409 -15.871410 -10.750220 5.538055 13.890421 9.399606 39.439063 -17.554126 38.133486 35.011724 0.000000 0.000000 0.000000 
